<svg fill="none" height="24" viewBox="0 0 24 24" width="24" xmlns="http://www.w3.org/2000/svg"><g fill="#212121"><path d="m15.5 11.75c0-.4142-.3358-.75-.75-.75s-.75.3358-.75.75v2c0 .4142.3358.75.75.75s.75-.3358.75-.75z"/><path d="m11.75 11c.4142 0 .75.3358.75.75v2c0 .4142-.3358.75-.75.75s-.75-.3358-.75-.75v-2c0-.4142.3358-.75.75-.75z"/><path d="m9.5 11.75c0-.4142-.33579-.75-.75-.75s-.75.3358-.75.75v2c0 .4142.33579.75.75.75s.75-.3358.75-.75z"/><path d="m5.75 15.5c.41421 0 .75.3358.75.75v2.5c0 .4142-.33579.75-.75.75s-.75-.3358-.75-.75v-2.5c0-.4142.33579-.75.75-.75z"/><path d="m19 16.25c0-.4142-.3358-.75-.75-.75s-.75.3358-.75.75v2.5c0 .4142.3358.75.75.75s.75-.3358.75-.75z"/><path d="m11.75 2h3.75c.2761 0 .5.22386.5.5v2c0 .27614-.2239.5-.5.5h-3v1.01758c3.6326.25638 6.5 3.28454 6.5 6.98242h.75c1.2426 0 2.25 1.0074 2.25 2.25v6c0 .4142-.3358.75-.75.75h-18.5c-.41421 0-.75-.3358-.75-.75v-6c0-1.2426 1.00736-2.25 2.25-2.25h.75c0-3.52647 2.60771-6.44388 6-6.92911v-3.32089c0-.41421.3358-.75.75-.75zm.25 5.5c-3.03757 0-5.5 2.46243-5.5 5.5v.75c0 .4142-.33579.75-.75.75h-1.5c-.41421 0-.75.3358-.75.75v5.25h6v-2.75c0-.4142.33579-.75.75-.75h3.5c.4142 0 .75.3358.75.75v2.75h6v-5.25c0-.4142-.3358-.75-.75-.75h-1.5c-.4142 0-.75-.3358-.75-.75v-.75c0-3.03757-2.4624-5.5-5.5-5.5zm1 11h-2v2h2z"/></g></svg>