<svg viewBox="0 0 14 14" xmlns="http://www.w3.org/2000/svg"><path d="m5.89796 11.16329q0 .0306.008.15306.008.12245.004.2028-.004.0804-.023.17985-.0191.0995-.0765.14924-.0574.0497-.15689.0497h-2.44898q-.91071 0-1.557396-.64668-.647194-.64665-.647194-1.55736v-5.38776q0-.91071.646684-1.55739.646686-.64669 1.557396-.64669h2.44898q.0995 0 .1722.0727.0727.0727.0727.17219 0 .0306.008.15306.008.12245.004.20281-.004.0803-.023.17984-.0191.0995-.0765.14924-.0574.0497-.15689.0497h-2.44898q-.5051 0-.86479.3597-.359698.35969-.359698.86479v5.38776q0 .5051.359698.86479.35969.3597.86479.3597h2.38776l.088.008.088.023.0612.0421.0536.0689.0153.10332zm7.10204-4.16327q0 .19898-.14541.34439l-4.16326 4.16326q-.14541.14541-.34439.14541-.19898 0-.34439-.14541-.14541-.1454-.14541-.34438v-2.20409h-3.42857q-.19898 0-.34439-.1454-.1454-.14541-.1454-.34439v-2.93878q0-.19898.1454-.34438.14541-.14541.34439-.14541h3.42857v-2.20408q0-.19898.14541-.34439.14541-.14541.34439-.14541.19898 0 .34439.14541l4.16326 4.16326q.14541.14541.14541.34439z"/></svg>