<svg height="73" viewBox="0 0 73 73" width="73" xmlns="http://www.w3.org/2000/svg"><g fill="none" fill-rule="nonzero"><rect fill="#fff" height="71" rx="14" stroke="#484b63" stroke-width="2" width="71" x="1" y="1"/><g transform="translate(14 14)"><path d="m17.9487241 9.79324138-.8549655-.85496552c-.3830689-.38306896-.3830689-1.00486207 0-1.38793103l7.0237242-7.02372414c.3830689-.38306897 1.004862-.38306897 1.387931 0l.8549655.85496552c.383069.38306896.383069 1.00486207 0 1.38793103l-7.0237241 7.02372414c-.383069.38306892-1.0048621.38306892-1.3879311 0z" fill="#744716"/><path d="m33.6513793 25.4958966-.8549655-.8549656c-.383069-.3830689-.383069-1.004862 0-1.387931l7.0237241-7.0237241c.383069-.383069 1.0048621-.383069 1.3879311 0l.8549655.8549655c.3830689.3830689.3830689 1.004862 0 1.387931l-7.0237242 7.0237242c-.3830689.3830689-1.004862.3830689-1.387931 0z" fill="#744716"/><path d="m39.8201379 14.8405517-.9882069-.9882069c-.306931-.306931-.8113448-.3180345-1.1151034-.0071379-.3093104.3164483-.8161035.3188276-1.1285862.0071379l-7.8509311-7.85093101c-.306931-.30693103-.3180344-.81134482-.0071379-1.11431034.3164483-.30931035.3188276-.81689655.0071379-1.12858621l-.9882069-.9882069c-.3830689-.38306896-1.004862-.38306896-1.387931 0l-7.0237241 7.02372414c-.383069.38306892-.383069 1.00486212 0 1.38793102l.9882069.9882069c.306931.306931.8113448.3180345 1.1143103.0071379.3093104-.3164482.8168966-.3188275 1.1285862-.0071379l1.2657931 1.2657931c.5393104.5393104.5393104 1.4148966 0 1.9542069l-6.3131034 6.3131035-1.1214483-1.1214483c-.6194138-.6194138-1.6234828-.6194138-2.2428965 0-.6194138.6194138-.6194138 1.6234827 0 2.2428965l1.1214482 1.1214483-7.75258618 7.7525862c-.52027586.5202759-1.173.8898621-1.8867931 1.0683104l-2.30396552.5757931c-.7137931.1784482-1.36651724.5480345-1.8867931 1.0683103l-.25855173.2585517c-.76137931.7621725-1.18965517 1.7947931-1.18965517 2.8726207 0 1.0770345.42827586 2.1104483 1.18965517 2.8718276l.98582759.9858276c.76137931.7613793 1.7947931 1.1896552 2.87182758 1.1896552 1.07703449 0 2.11044828-.4282759 2.87182759-1.1896552l.25775862-.2577586c.52027586-.5202759.88986207-1.173 1.06831035-1.8867931l.5757931-2.3039655c.17844828-.7137931.5480345-1.3665173 1.0683103-1.8867931l7.7525863-7.7525863 1.1214482 1.1214483c.6194138.6194138 1.6234828.6194138 2.2428966 0s.6194138-1.6234827 0-2.2428965l-1.1214483-1.1214483 6.3131035-6.3131035c.5393103-.5393103 1.4148965-.5393103 1.9542068 0l1.2657932 1.2657932c.306931.306931.3180344.8113448.0071379 1.1151034-.3164483.3093103-.3188276.8161034-.0071379 1.1285862l.9882068.9882069c.383069.383069 1.0048621.383069 1.3879311 0l7.0237241-7.0237241c.3854483-.3846552.3854483-1.0064483.0023793-1.3895173z" fill="#9d714b"/><path d="m46 45.762069h-16.6551724c0-2.6283449 2.1302758-4.7586207 4.7586207-4.7586207h7.137931c2.6283448 0 4.7586207 2.1302758 4.7586207 4.7586207z" fill="#9d714b"/><path d="m42.8275862 41.0034483h-10.3103448c-.4377931 0-.7931035-.3545173-.7931035-.7931035s.3553104-.7931034.7931035-.7931034h10.3103448c.4377931 0 .7931035.3545172.7931035.7931034s-.3553104.7931035-.7931035.7931035z" fill="#744818"/></g></g></svg>