<svg fill="none" height="48" viewBox="0 0 48 48" width="48" xmlns="http://www.w3.org/2000/svg"><g clip-rule="evenodd" fill="#333" fill-rule="evenodd"><path d="m10.4894 29.3487v5.2001c0 1.1046.8954 2 2 2h30c1.1045 0 2-.8954 2-2v-16c0-1.1045-.8955-2-2-2h-6.8555v2h3.8566c.0005.3927.0781.7814.2283 1.1442.1508.3639.3718.6947.6504.9732.2785.2786.6093.4996.9732.6504.3637.1506.7534.2282 1.147.2283v10.004c-.388.0022-.772.0798-1.1306.2283-.364.1508-.6947.3717-.9733.6503s-.4995.6093-.6503.9733-.2284.7541-.2284 1.148h-24.0216c-.0048-.3811-.0822-.758-.2281-1.1104-.1508-.364-.3718-.6947-.6504-.9733-.2785-.2786-.6092-.4996-.9732-.6503-.3628-.1503-.7515-.2279-1.1441-.2284v-2.2377z"/><path d="m20.5106 23.4512c1.1046 0 2-.8955 2-2 0-1.1046-.8954-2-2-2-1.1045 0-2 .8954-2 2 0 1.1045.8955 2 2 2zm0 2c2.2092 0 4-1.7909 4-4 0-2.2092-1.7908-4-4-4-2.2091 0-4 1.7908-4 4 0 2.2091 1.7909 4 4 4z"/><path d="m5.51062 11.4512c-1.10457 0-2 .8954-2 2v16c0 1.1045.89543 2 2 2h29.99998c1.1046 0 2-.8955 2-2v-16c0-1.1046-.8954-2-2-2zm2.99817 2h24.00291c.0005.3926.0781.7813.2284 1.1441.1507.364.3717.6947.6503.9733s.6093.4995.9733.6503c.3636.1506.7533.2282 1.1469.2284v10.0039c-.388.0023-.772.0798-1.1306.2283-.364.1508-.6947.3718-.9732.6504-.2786.2785-.4996.6092-.6504.9732-.1507.364-.2283.7541-.2283 1.1481h-24.02167c-.00478-.3812-.08216-.7581-.22813-1.1105-.15076-.364-.37174-.6947-.65031-.9733-.27858-.2785-.6093-.4995-.97327-.6503-.36276-.1502-.75148-.2278-1.1441-.2283v-10.0376c.39334-.0003.78281-.0779 1.14622-.2284.36398-.1508.69469-.3717.97327-.6503s.49955-.6093.65032-.9733c.15076-.364.22836-.7541.22836-1.148z"/></g></svg>