<svg viewBox="0 0 512 512" xmlns="http://www.w3.org/2000/svg"><path d="m153.01 151.33-6.55 125.05-27.83-15.79-.02-.17-14.31-136.72z" fill="#c72a24"/><path d="m441.985 409.752-217.985 27.248-24-29v-288.492a16 16 0 0 1 15.5-15.992l224-7a16 16 0 0 1 16.5 15.992v281.367a16 16 0 0 1 -14.015 15.877z" fill="#007af6"/><circle cx="312" cy="256" fill="#f55648" r="64"/><path d="m200 128h208a16 16 0 0 1 16 16v280a16 16 0 0 1 -16 16h-192a16 16 0 0 1 -16-16v-296a0 0 0 0 1 0 0z" fill="#009cf7"/><path d="m312 184a72 72 0 1 0 72 72 72.081 72.081 0 0 0 -72-72zm31.257 56h22.4a55.848 55.848 0 0 1 0 32h-22.4c.491-5.262.743-10.635.743-16s-.252-10.738-.743-16zm14.66-16h-17c-1.671-8.188-4.02-14.636-7.025-19.54a56.334 56.334 0 0 1 24.025 19.54zm-58.493 64h25.152c-3.729 15.732-9.564 24-12.576 24s-8.847-8.268-12.576-24zm27.793-16h-30.434a163.865 163.865 0 0 1 0-32h30.434a163.865 163.865 0 0 1 0 32zm-2.641-48h-25.152c3.729-15.732 9.564-24 12.576-24s8.847 8.268 12.576 24zm-34.469-19.54c-3.005 4.9-5.354 11.352-7.025 19.54h-17a56.334 56.334 0 0 1 24.025-19.54zm-9.364 67.54h-22.4a55.848 55.848 0 0 1 0-32h22.4c-.491 5.262-.743 10.635-.743 16s.252 10.738.743 16zm-14.66 16h17c1.671 8.188 4.02 14.636 7.025 19.54a56.334 56.334 0 0 1 -24.025-19.54zm67.81 19.54c3.005-4.9 5.354-11.352 7.025-19.54h17a56.334 56.334 0 0 1 -24.025 19.54z" fill="#007af6"/><path d="m352 368h-93.333a8 8 0 1 1 0-16h93.333a8 8 0 0 1 0 16z" fill="#007af6"/><path d="m334.667 400h-48a8 8 0 1 1 0-16h48a8 8 0 0 1 0 16z" fill="#007af6"/><path d="m410.51 330.979a82.511 82.511 0 1 0 82.511 82.511 82.6 82.6 0 0 0 -82.511-82.511zm0 16a66.159 66.159 0 0 1 41 14.2l-93.31 93.31a66.455 66.455 0 0 1 52.312-107.51zm0 133.021a66.164 66.164 0 0 1 -41-14.2l93.312-93.311a66.455 66.455 0 0 1 -52.312 107.511z" fill="#e13029"/><path d="m145.57 147.11-6.54 124.89-20.42-11.58-14.31-136.72z" fill="#e13029"/><path d="m280.67 39.79-103.97 69.79-48.71-27.63.9-.42 123.94-57.53 21.1 11.97z" fill="#c72a24"/><path d="m273.93 35.97-103.22 69.28-41.82-23.72 123.94-57.53z" fill="#e13029"/><path d="m349.517 161.622-20.875-11.841-47.57 19-191.551-108.654a117.667 117.667 0 0 0 -51.9-15.159 12.947 12.947 0 0 0 -11.937 6.54 12.944 12.944 0 0 0 .512 13.6 117.656 117.656 0 0 0 39.641 36.768l191.552 108.659 8.1 50.581 20.875 11.841 15.789-27.834-5.087-39.675 36.664-15.992z" fill="#ebebeb"/><g fill="#cbcbcb"><path d="m207.993 280a7.966 7.966 0 0 1 -4.288-1.251l-16-10.182a8 8 0 1 1 8.59-13.5l16 10.181a8 8 0 0 1 -4.3 14.751z"/><path d="m167.993 254.546a7.966 7.966 0 0 1 -4.288-1.251l-32-20.364a8 8 0 1 1 8.59-13.5l32 20.364a8 8 0 0 1 -4.3 14.75z"/><path d="m223.992 240a7.965 7.965 0 0 1 -4.287-1.251l-25.143-16a8 8 0 0 1 8.59-13.5l25.143 16a8 8 0 0 1 -4.3 14.751z"/><path d="m173.707 208a7.966 7.966 0 0 1 -4.288-1.251l-37.714-24a8 8 0 0 1 8.59-13.5l37.714 24a8 8 0 0 1 -4.3 14.751z"/><path d="m271.993 126.771a7.973 7.973 0 0 1 -3.786-.958l-72-38.769a8 8 0 0 1 7.586-14.088l72 38.769a8 8 0 0 1 -3.8 15.046z"/><path d="m311.993 112a7.972 7.972 0 0 1 -3.786-.957l-44.571-24a8 8 0 0 1 7.586-14.088l44.571 24a8 8 0 0 1 -3.8 15.045z"/><path d="m239.993 73.232a7.972 7.972 0 0 1 -3.786-.957l-32-17.231a8 8 0 0 1 7.586-14.088l32 17.231a8 8 0 0 1 -3.8 15.045z"/></g><path d="m349.52 161.62-15.79 27.84-36.67 15.99-2.51-5.75-13.48-30.92 47.57-19 16.06 9.11z" fill="#c72a24"/><path d="m344.7 158.89-14.27 25.15-35.88 15.66-13.48-30.92 47.57-19z" fill="#e13029"/><path d="m302.15 245.12-15.79 27.84-4.54-2.58-16.33-9.26-8.1-50.59 33.77-4.32 5.9-.76z" fill="#c72a24"/><path d="m296.15 245.12-14.33 25.26-16.33-9.26-8.1-50.59 33.77-4.32z" fill="#e13029"/><path d="m55.034 87a8 8 0 0 1 -7.162-4.424l-.039-.079a19.011 19.011 0 0 1 15.567-27.478 8 8 0 1 1 1.2 15.955 3.012 3.012 0 0 0 -2.465 4.355l.047.093a8 8 0 0 1 -7.148 11.578z" fill="#cbcbcb"/><path d="m61.891 108.836 34.884 19.788 13.895 132.795a8 8 0 0 0 4.01 6.126l27.834 15.789a8 8 0 0 0 11.936-6.54l1.49-28.44 7.765 4.941a8 8 0 1 0 8.59-13.5l-15.395-9.795 1.582-30.209 10.935 6.959a8 8 0 1 0 8.59-13.5l-18.563-11.813.878-16.765 31.678 17.969v29.253a7.989 7.989 0 0 0 0 8.214v33.717a7.995 7.995 0 0 0 -4.295 14.743l4.295 2.732v152.7a24.027 24.027 0 0 0 24 24h119.592a82.832 82.832 0 0 0 15.949 23.121 8.177 8.177 0 0 0 .626.712 8.033 8.033 0 0 0 .712.626 82.454 82.454 0 0 0 116.6-116.6 7.306 7.306 0 0 0 -1.338-1.338q-2.005-1.961-4.142-3.779v-238.234a24 24 0 0 0 -24.749-23.988l-131.494 4.109-36.534-19.673a8 8 0 0 0 -7.586 14.088l12.223 6.581-31.832 1-17.027-9.176 58.129-39.018a8 8 0 0 0 -.512-13.6l-27.839-15.789a8 8 0 0 0 -7.315-.3l-121.11 56.215-34.885-19.789a126.321 126.321 0 0 0 -55.428-16.189 20.945 20.945 0 0 0 -18.486 32.588 126.317 126.317 0 0 0 42.337 39.269zm82.05 62.735-3.646-2.321a8 8 0 0 0 -8.59 13.5l11.274 7.174-1.579 30.209-1.1-.7a8 8 0 1 0 -8.59 13.5l8.73 5.556-1.286 24.543-12.994-7.371-12.283-117.335 30.888 17.52zm72.059 260.429a8.009 8.009 0 0 1 -8-8v-144a8 8 0 0 0 4.3-14.75l-4.3-2.733v-31.217l11.705 7.449a8 8 0 1 0 8.59-13.5l-20.295-12.913v-20.619l42.1 23.883.459 2.869a71.99 71.99 0 0 0 60.652 109.511c.267.012.531.02.789.02a72 72 0 0 0 30.24-137.336l14.236-25.095a8 8 0 0 0 -3.012-10.9l-20.875-11.842a8 8 0 0 0 -6.915-.47l-44 17.577-42.183-23.934h168.509a8.009 8.009 0 0 1 8 8v187.182c-1.817-.12-3.643-.2-5.49-.2a82.189 82.189 0 0 0 -55.577 21.583 7.986 7.986 0 0 0 -2.933-.565h-93.333a8 8 0 1 0 0 16h83.052a82.333 82.333 0 0 0 -8.25 16h-46.8a8 8 0 1 0 0 16h42.454a81.809 81.809 0 0 0 1 32zm41.587-169.62a8 8 0 0 0 3.953 5.694l6.92 3.926h-10.119a55.823 55.823 0 0 1 -2.341-16c0-1 .036-1.994.088-2.987zm48.175-52 11.741-5.121c2.626 4.193 5.157 10.576 7.076 18.739h-17.071zm62.238 45.62a55.823 55.823 0 0 1 -2.341 16h-22.4c.491-5.262.743-10.635.743-16 0-5.474-.252-10.832-.729-16h22.367a55.577 55.577 0 0 1 2.36 16zm-40 0a158.855 158.855 0 0 1 -.783 16h-30.417c-.027-.257-.056-.511-.081-.769-.008-.085-.026-.168-.037-.253l12.427-21.907a8 8 0 0 0 .977-4.965l-.526-4.106h17.647a158.1 158.1 0 0 1 .793 16zm-44.968 32a100.086 100.086 0 0 0 5.635 18.888 56.336 56.336 0 0 1 -22.584-18.888zm21.368 14.906a74.615 74.615 0 0 1 -4.983-14.906h25.159c-3.729 15.732-9.564 24-12.576 24-1.309 0-4.412-2.422-7.6-9.094zm36.518-14.906h17a56.358 56.358 0 0 1 -22.67 18.927 100.771 100.771 0 0 0 5.67-18.927zm.028-64a101.374 101.374 0 0 0 -5.649-18.929 56.209 56.209 0 0 1 22.603 18.929zm-12.861-40.811-6.146 2.681c-.1.041-.2.087-.3.132l-20.439 8.915-9.493-21.766 36.334-14.515 10.572 6zm-37.932 31.265 3.723 29.042-10.525 18.555-10.573-6-6.151-38.424zm-49.926-103.707 17.184 9.253h-45.982c-.045 0-.088.006-.132.007l-3.183-1.806a7.951 7.951 0 0 1 7.636-6.689zm-46.346-.619-1.979-1.123 4-2.686a23.819 23.819 0 0 0 -2.021 3.809zm254.119 254.559-16 16v-30.125a66.343 66.343 0 0 1 16 8.026zm0 22.626v6.562a8.032 8.032 0 0 1 -7.077 7.948l-8.581 1.148zm-32 9.374-35.313 35.313h-34.046a66.47 66.47 0 0 1 63.869-85.021c1.85 0 3.678.1 5.49.245zm0 22.626v4.687a8.009 8.009 0 0 1 -8 8h-4.687zm-51.313 28.687-6.489 6.489a66.852 66.852 0 0 1 -4.524-6.489zm45.823 32a66.164 66.164 0 0 1 -41-14.2l17.8-17.8h20.69a24.027 24.027 0 0 0 24-24v-4.841l10.977-1.469a24.038 24.038 0 0 0 21.023-23.815v-19.859a66.469 66.469 0 0 1 -53.49 105.984zm-106.553-371.245 4.25 2.289a7.97 7.97 0 0 0 10.521-2.75l121.022-3.782a8 8 0 0 1 8.25 8v227.514a81.92 81.92 0 0 0 -16-6.19v-189.836a24.027 24.027 0 0 0 -24-24h-128.1a8 8 0 0 0 -4.105-8.275l-3.668-1.975zm-91.531-12.978q-.552.081-1.095.186l.641-.43zm40.039-62.787 12.994 7.37-24.381 16.365-18.4-9.909zm-47.914 22.239 21.505 11.58-14.991 10.063-7.272-3.916a8 8 0 0 0 -7.742 13.993l-19.709 13.23-30.887-17.521zm70.254 119.2 10.695 24.509-26.121 3.526-189.594-107.545a109.128 109.128 0 0 1 -12.466-8.267 7.938 7.938 0 0 0 4.864-11.23l-.047-.093a3.012 3.012 0 0 1 2.464-4.355 7.968 7.968 0 0 0 6.963-10.556 109.272 109.272 0 0 1 14.01 6.667zm-242.161-118.974a4.92 4.92 0 0 1 4.559-2.5 109.488 109.488 0 0 1 21.035 3.195 18.995 18.995 0 0 0 -12.225 20.55 109.539 109.539 0 0 1 -13.174-16.05 4.918 4.918 0 0 1 -.195-5.195z"/></svg>