<svg enable-background="new 0 0 128 128" viewBox="0 0 128 128" xmlns="http://www.w3.org/2000/svg" xmlns:xlink="http://www.w3.org/1999/xlink"><linearGradient id="a" gradientUnits="userSpaceOnUse" x1="64" x2="64" y1="4.25" y2="124.41"><stop offset="0" stop-color="#82b1ff"/><stop offset=".2644" stop-color="#6fa0ff"/><stop offset=".7989" stop-color="#3d74ff"/><stop offset="1" stop-color="#2962ff"/></linearGradient><path d="m116 124h-104c-4.42 0-8-3.58-8-8v-104c0-4.42 3.58-8 8-8h104c4.42 0 8 3.58 8 8v104c0 4.42-3.58 8-8 8z" fill="url(#a)"/><path d="m116 7c2.76 0 5 2.24 5 5v104c0 2.76-2.24 5-5 5h-104c-2.76 0-5-2.24-5-5v-104c0-2.76 2.24-5 5-5zm0-3h-104c-4.42 0-8 3.58-8 8v104c0 4.42 3.58 8 8 8h104c4.42 0 8-3.58 8-8v-104c0-4.42-3.58-8-8-8z" fill="#424242" opacity=".2"/><g fill="#424242" opacity=".2"><path d="m108.33 57.24c-4.5-3.93-10.57-4.24-12.33-4.24h-1.14c7.05-2.44 12.14-9.13 12.14-17v-6c0-1.08-.35-2.07-.93-2.89.58-.82.93-1.81.93-2.89v-6c0-2.76-2.24-5-5-5h-31.32c-2.4 0-4.49 1.36-5.47 3.54s-.6 4.65.99 6.44l2.82 3.18-2.78 1.19-.26.11-.24.16c-1.83 1.24-2.63 3.49-1.98 5.61.64 2.13 2.57 3.55 4.78 3.55h2.49c.41 7.44 5.36 13.67 12.11 16h-6.14v.17c-2.51.39-4.88 1.45-6.85 3.07-.6.5-1.17 1.06-1.7 1.67l-14.27 13.68c-.4.39-.93.6-1.49.6h-12.28c.06-.15.13-.3.18-.46l.12-.42v-5.19c.06-.01.12-.01.18-.02l2.14-.45c2.3-.49 3.97-2.54 3.97-4.89v-24.78c0-2.76-2.24-5-5-5-.08 0-.16 0-.24.01l-19.36.93c-1.3.06-2.38.87-2.85 2.01l-.73-.12c-.27-.04-.55-.07-.82-.07-2.75 0-5 2.24-5 5v25.42c0 2.19 1.4 4.1 3.48 4.76l11.88 3.79c-2.91 1.08-5.11 3.7-5.41 6.84-.22 2.29.54 4.58 2.08 6.28s3.74 2.67 6.04 2.67h26.77c2.19 0 4.32-.9 5.84-2.46l5.32-5.45v17.41c0 1.49.67 2.82 1.71 3.73-1.03.73-1.71 1.92-1.71 3.27v6c0 2.21 1.79 4 4 4h26c1.32 0 2.49-.65 3.22-1.65 1.14.88 2.51 1.47 4.01 1.61.26.02.52.04.78.04 4.41 0 8-3.59 8-8v-35.6c-.01-5.49-2.44-10.65-6.68-14.16z"/><path d="m100 64.38.31-.38h-.31z"/></g><g fill="#fafafa"><path d="m68.44 21.22c-1.72-1.93-.35-4.99 2.24-4.99h31.32c1.1 0 2 .9 2 2v5.08c0 1.1-.9 2-2 2h-26.87c-3.63 0-6.69-4.09-6.69-4.09z"/><path d="m99 112h-26c-.55 0-1-.45-1-1v-6c0-.55.45-1 1-1h26c.55 0 1 .45 1 1v6c0 .55-.45 1-1 1z"/><path d="m104 30c0-1.1-.9-2-2-2h-27.88c-.81 0-1.62.16-2.36.48l-4.34 1.86c-1.64 1.1-.85 3.66 1.12 3.66h4.5c.58 0 1.04.5.99 1.08-.02.3-.03.61-.03.92 0 8.28 6.72 15 15 15s15-6.72 15-15z"/><path d="m16 38.75v25.42c0 .87.56 1.64 1.39 1.91l18.36 5.85c.86.27 1.72-.23 1.96-1.04v-29.22c0-.98-.71-1.81-1.67-1.97l-17.71-2.92c-1.22-.2-2.33.74-2.33 1.97z"/><path d="m41.9 33.98-19.36.94c-.31.02-.34.47-.03.52l15.52 2.56c.97.16 1.67.99 1.67 1.97v23.08c.16.1.36.16.56.11l2.14-.45c.92-.2 1.59-1.01 1.59-1.96v-24.77c.01-1.14-.95-2.05-2.09-2z"/><path d="m72.06 73.15v13.85c0 .95 1.2 1.36 1.78.62l22.67-27.62c.52-.65 1.78-3.97-.78-3.97-4.83 0-16.56-.03-16.56-.03-2.7 0-5.18.96-7.11 2.55-.52.43-.99.91-1.43 1.42l-14.37 13.78c-.96.92-2.24 1.43-3.57 1.43h-21.39c-2.69 0-5.1 1.97-5.36 4.65-.29 3.08 2.12 5.66 5.13 5.66h26.77c1.39 0 2.72-.56 3.69-1.56l6.47-6.61z"/><path d="m106.22 59.38c-.19-.15-.38-.29-.57-.43-.44-.31-1.05-.24-1.38.18l-31.93 39.25c-.52.66-.05 1.62.79 1.62h26.87v-27c0-.55.45-1 1-1s1 .45 1 1v33.79c0 2.61 1.91 4.94 4.51 5.19 2.98.28 5.49-2.05 5.49-4.98v-35.6c0-4.68-2.13-9.1-5.78-12.02z"/></g></svg>