<svg fill="none" height="24" viewBox="0 0 24 24" width="24" xmlns="http://www.w3.org/2000/svg"><path d="m4 6v13c0 1.6569 1.34315 3 3 3h10c1.6569 0 3-1.3431 3-3v-10c0-1.65685-1.3431-3-3-3zm0 0v-1" stroke="#1c274d" stroke-width="1.5"/><circle cx="12" cy="14" r="3" stroke="#1c274d" stroke-width="1.5"/><path d="m18 6.00002v.75h.75v-.75zm-2.2828-3.67388-.1061-.74246zm-10.79761 1.54251-.10606-.74246zm.15148 2.88137h12.92893v-1.5h-12.92893zm13.67893-.75v-1.69398h-1.5v1.69398zm-3.1389-4.41634-10.79757 1.54251.21213 1.48492 10.79754-1.54251zm-10.79757 1.54251c-.89715.12816-1.56353.89651-1.56353 1.80276h1.5c0-.15978.11749-.29524.27566-.31784zm13.93647 1.17985c0-1.67351-1.4822-2.95903-3.1389-2.72236l.2121 1.48492c.7531-.10757 1.4268.47675 1.4268 1.23744zm-13.67893.94398c-.17732 0-.32107-.14375-.32107-.32107h-1.5c0 1.00575.81532 1.82107 1.82107 1.82107z" fill="#1c274d"/></svg>