<svg fill="none" height="24" viewBox="0 0 24 24" width="24" xmlns="http://www.w3.org/2000/svg"><g stroke="#141b34" stroke-width="1.5"><path d="m2 8.56907c0-1.19618.48238-1.92925 1.48063-2.48479l4.10924-2.28684c2.15323-1.19829 3.22983-1.79744 4.41013-1.79744s2.2569.59915 4.4101 1.79744l4.1093 2.28684c.9982.55554 1.4806 1.28862 1.4806 2.48479 0 .32436 0 .48654-.0354.61987-.1861.70051-.8209.81106-1.4339.81106h-17.06142c-.61301 0-1.24776-.11056-1.43386-.81106-.03542-.13333-.03542-.29551-.03542-.61987z"/><path d="m4 10v8.5m4-8.5v8.5"/><path d="m11 18.5h-6c-1.65685 0-3 1.3431-3 3 0 .2761.22386.5.5.5h8.5" stroke-linecap="round"/><path d="m21.5 14.5-7 7" stroke-linecap="round" stroke-linejoin="round"/><circle cx="15.25" cy="15.25" r=".75"/><circle cx="20.75" cy="20.75" r=".75"/></g></svg>